{
    "asset" : {
        "generator" : "Khronos glTF Blender I/O v1.1.46",
        "version" : "2.0"
    },
    "scene" : 0,
    "scenes" : [
        {
            "name" : "Scene",
            "nodes" : [
                0,
                1,
                3
            ]
        }
    ],
    "nodes" : [
        {
            "name" : "Light",
            "rotation" : [
                0.16907575726509094,
                0.7558803558349609,
                -0.27217137813568115,
                0.570947527885437
            ],
            "translation" : [
                1.1226623058319092,
                0.7078862190246582,
                0.8200838565826416
            ]
        },
        {
            "name" : "Camera",
            "rotation" : [
                -0.3180464804172516,
                -0.5754747986793518,
                0.2879284620285034,
                -0.6962559819221497
            ],
            "translation" : [
                0.39738401770591736,
                0.34522745013237,
                0.05142734572291374
            ]
        },
        {
            "mesh" : 0,
            "name" : "Icing"
        },
        {
            "children" : [
                2
            ],
            "mesh" : 1,
            "name" : "Donut",
            "translation" : [
                0,
                0.011904481798410416,
                0
            ]
        }
    ],
    "materials" : [
        {
            "doubleSided" : true,
            "emissiveFactor" : [
                0,
                0,
                0
            ],
            "name" : "Material.001",
            "pbrMetallicRoughness" : {
                "baseColorFactor" : [
                    1,
                    0.48077714443206787,
                    0.9459901452064514,
                    1
                ],
                "metallicFactor" : 0,
                "roughnessFactor" : 0.24444447457790375
            }
        },
        {
            "doubleSided" : true,
            "emissiveFactor" : [
                0,
                0,
                0
            ],
            "name" : "Material.002",
            "pbrMetallicRoughness" : {
                "baseColorFactor" : [
                    0.8000000715255737,
                    0.5832923650741577,
                    0.2768701910972595,
                    1
                ],
                "metallicFactor" : 0,
                "roughnessFactor" : 0.6666666269302368
            }
        }
    ],
    "meshes" : [
        {
            "name" : "Torus.004",
            "primitives" : [
                {
                    "attributes" : {
                        "POSITION" : 0,
                        "NORMAL" : 1,
                        "TEXCOORD_0" : 2
                    },
                    "indices" : 3,
                    "material" : 0
                }
            ]
        },
        {
            "name" : "Torus.003",
            "primitives" : [
                {
                    "attributes" : {
                        "POSITION" : 4,
                        "NORMAL" : 5,
                        "TEXCOORD_0" : 6
                    },
                    "indices" : 7,
                    "material" : 1
                }
            ]
        }
    ],
    "accessors" : [
        {
            "bufferView" : 0,
            "componentType" : 5126,
            "count" : 35612,
            "max" : [
                0.08546699583530426,
                0.03846568241715431,
                0.07188411802053452
            ],
            "min" : [
                -0.07104715704917908,
                -0.0014351902063935995,
                -0.08557932078838348
            ],
            "type" : "VEC3"
        },
        {
            "bufferView" : 1,
            "componentType" : 5126,
            "count" : 35612,
            "type" : "VEC3"
        },
        {
            "bufferView" : 2,
            "componentType" : 5126,
            "count" : 35612,
            "type" : "VEC2"
        },
        {
            "bufferView" : 3,
            "componentType" : 5123,
            "count" : 200832,
            "type" : "SCALAR"
        },
        {
            "bufferView" : 4,
            "componentType" : 5126,
            "count" : 4949,
            "max" : [
                0.07466454803943634,
                0.03611746057868004,
                0.06698895245790482
            ],
            "min" : [
                -0.06660974770784378,
                -0.022315995767712593,
                -0.07704406976699829
            ],
            "type" : "VEC3"
        },
        {
            "bufferView" : 5,
            "componentType" : 5126,
            "count" : 4949,
            "type" : "VEC3"
        },
        {
            "bufferView" : 6,
            "componentType" : 5126,
            "count" : 4949,
            "type" : "VEC2"
        },
        {
            "bufferView" : 7,
            "componentType" : 5123,
            "count" : 28800,
            "type" : "SCALAR"
        }
    ],
    "bufferViews" : [
        {
            "buffer" : 0,
            "byteLength" : 427344,
            "byteOffset" : 0
        },
        {
            "buffer" : 0,
            "byteLength" : 427344,
            "byteOffset" : 427344
        },
        {
            "buffer" : 0,
            "byteLength" : 284896,
            "byteOffset" : 854688
        },
        {
            "buffer" : 0,
            "byteLength" : 401664,
            "byteOffset" : 1139584
        },
        {
            "buffer" : 0,
            "byteLength" : 59388,
            "byteOffset" : 1541248
        },
        {
            "buffer" : 0,
            "byteLength" : 59388,
            "byteOffset" : 1600636
        },
        {
            "buffer" : 0,
            "byteLength" : 39592,
            "byteOffset" : 1660024
        },
        {
            "buffer" : 0,
            "byteLength" : 57600,
            "byteOffset" : 1699616
        }
    ],
    "buffers" : [
        {
            "byteLength" : 1757216,
            "uri" : "data:application/octet-stream;base64,"
        }
    ]
}
