<svg xmlns="http://www.w3.org/2000/svg" xmlns:xlink="http://www.w3.org/1999/xlink" version="1.1" x="0px" y="0px" viewBox="0 0 50 62.5" style="enable-background:new 0 0 50 50;" xml:space="preserve"><path d="M24.99,36.97c-0.28,0-0.5-0.22-0.5-0.5c0-0.28,0.22-0.5,0.5-0.5c0.97,0,1.93-0.14,2.86-0.41c0.26-0.08,0.54,0.07,0.62,0.34  c0.08,0.26-0.07,0.54-0.34,0.62C27.12,36.82,26.06,36.97,24.99,36.97z"/><path d="M30,35.7c-0.18,0-0.35-0.09-0.44-0.26c-0.13-0.24-0.04-0.55,0.2-0.68c3.23-1.76,5.24-5.13,5.24-8.8c0-0.28,0.22-0.5,0.5-0.5  s0.5,0.22,0.5,0.5c0,4.04-2.21,7.75-5.76,9.68C30.17,35.68,30.08,35.7,30,35.7z"/><path d="M22.93,39.5c0.08,0.07,0.18,0.12,0.29,0.14c0.58,0.07,1.16,0.1,1.74,0.1c8.13,0,14.74-6.61,14.74-14.74  c0-1.45-0.21-2.88-0.62-4.26l0.01,0l-0.14-0.42l-0.18-0.54l-0.01,0.01c-2.16-5.72-7.63-9.53-13.79-9.53c-7.67,0-14,5.89-14.68,13.39  c-0.01,0.16,0.09,0.31,0.24,0.36l0.84,0.28c0.1,0.03,0.22,0.02,0.31-0.03c0.24-0.14,0.45-0.25,0.64-0.34  c0.28-0.13,0.58-0.24,0.87-0.15c0.13,0.04,0.21,0.11,0.32,0.21c0.13,0.12,0.29,0.26,0.55,0.35c0.65,0.24,1.69-0.37,2.13-0.66  c0,0,0,0,0,0c0.21,0.07,0.34,0.14,0.41,0.19c0.06,0.04,0.09,0.08,0.1,0.11c0,0.02,0.01,0.03,0,0.08c-0.02,0.09-0.09,0.2-0.17,0.33  l-0.02,0.03c-0.09,0.14-0.19,0.31-0.26,0.49c-0.13,0.32-0.16,0.62-0.08,0.92c0.07,0.27,0.28,0.49,1.18,1.39l0.15,0.15  c0.32,0.32,0.4,0.4,0.41,0.46c0.01,0.08-0.01,0.13-0.1,0.28c-0.1,0.18-0.27,0.48-0.15,0.86c0.17,0.52,0.66,0.62,1.02,0.7  c0.26,0.05,0.51,0.11,0.65,0.28c0.16,0.19,0.16,0.5,0.15,0.8c-0.01,0.37-0.01,0.88,0.46,1.11c0.45,0.22,0.85-0.08,1.12-0.28  c0.1-0.07,0.3-0.23,0.36-0.23c0,0,0,0,0,0c0.04,0.03,0.11,0.18,0.15,0.28c0.13,0.29,0.33,0.73,0.84,0.95  c0.43,0.19,0.81,0.09,1.06,0.02c0.06-0.02,0.16-0.04,0.2-0.04c0,0,0,0,0,0c0.03,0.04,0.21,0.3,0.09,1.27  c-0.12,1-0.56,2.54-1.33,4.59c-0.03,0.07-0.05,0.14-0.08,0.2c-0.06,0.16-0.02,0.35,0.11,0.47L22.93,39.5z M33,17.12l1.46-0.31  c0.28-0.06,0.56,0.13,0.6,0.43c0.03,0.26-0.16,0.5-0.42,0.55l-1.46,0.31c-0.04,0.01-0.07,0.01-0.11,0.01  c-0.24,0-0.45-0.17-0.49-0.42C32.54,17.43,32.74,17.18,33,17.12z M29.46,15.47c0.24-0.17,0.58-0.1,0.72,0.16l0.75,1.29  c0.13,0.22,0.08,0.52-0.13,0.67c-0.09,0.07-0.19,0.1-0.3,0.1c-0.17,0-0.34-0.09-0.43-0.25l-0.74-1.29  C29.19,15.92,29.24,15.62,29.46,15.47z M26.58,12.17c0.16-0.25,0.49-0.32,0.73-0.14l1.19,0.89c0.25,0.19,0.3,0.54,0.09,0.77  c-0.1,0.1-0.23,0.15-0.36,0.15c-0.1,0-0.21-0.03-0.3-0.1l-1.2-0.89C26.51,12.69,26.44,12.39,26.58,12.17z M24.35,15.01  c0.13-0.27,0.45-0.37,0.7-0.22l1.29,0.75c0.22,0.13,0.33,0.4,0.23,0.63c-0.08,0.2-0.27,0.31-0.46,0.31c-0.08,0-0.17-0.02-0.25-0.07  l-1.29-0.75C24.35,15.53,24.24,15.25,24.35,15.01z M29.62,25c0,2.57-2.09,4.66-4.65,4.66c-2.32,0-4.3-1.73-4.61-4.02  c-0.03-0.2-0.05-0.42-0.05-0.64c0-2.57,2.09-4.65,4.66-4.65c0.19,0,0.38,0.01,0.58,0.04c0.01,0,0.01,0,0.02,0  C27.88,20.68,29.62,22.66,29.62,25z M21.38,13.72l0.74-1.27c0.13-0.23,0.42-0.34,0.65-0.23c0.27,0.13,0.37,0.45,0.22,0.7l-0.76,1.31  c-0.09,0.16-0.26,0.25-0.43,0.25c-0.1,0-0.21-0.03-0.3-0.1C21.3,14.23,21.25,13.94,21.38,13.72z M20.03,15.78  c0.23-0.12,0.52-0.03,0.67,0.19l0.81,1.23c0.15,0.22,0.11,0.53-0.1,0.69c-0.09,0.07-0.2,0.1-0.3,0.1c-0.16,0-0.32-0.08-0.42-0.23  l-0.83-1.27C19.69,16.25,19.77,15.92,20.03,15.78z M17.51,21.98L18.62,21c0.22-0.19,0.56-0.16,0.73,0.08  c0.16,0.21,0.11,0.51-0.09,0.69l-1.12,0.99c-0.1,0.08-0.21,0.13-0.33,0.13c-0.13,0-0.25-0.05-0.35-0.14  C17.26,22.53,17.28,22.18,17.51,21.98z M16.24,17.02c0.02-0.28,0.26-0.48,0.54-0.46c0.28,0.02,0.48,0.26,0.46,0.54l-0.12,1.51  c-0.02,0.26-0.24,0.46-0.5,0.46c-0.01,0-0.03,0-0.04,0c-0.28-0.02-0.48-0.27-0.45-0.55L16.24,17.02z M12.84,20.11  c0.22-0.17,0.53-0.12,0.7,0.1l0.91,1.21c0.17,0.22,0.12,0.53-0.1,0.7c-0.09,0.07-0.2,0.1-0.3,0.1c-0.15,0-0.3-0.07-0.4-0.2  l-0.91-1.21C12.58,20.59,12.62,20.28,12.84,20.11z M24.97,38.74c-0.52,0-1.03-0.03-1.54-0.09c0,0,0,0,0-0.01  c0.77-2.07,1.22-3.65,1.34-4.72c0.05-0.45,0.21-1.81-0.6-2.28c-0.37-0.21-0.73-0.12-0.97-0.06c-0.21,0.05-0.3,0.07-0.4,0.03  c-0.13-0.06-0.2-0.19-0.31-0.43c-0.14-0.3-0.32-0.7-0.81-0.84c-0.49-0.13-0.9,0.13-1.18,0.34c0,0-0.01,0-0.01,0  c0-0.39-0.01-0.96-0.39-1.42c-0.37-0.44-0.86-0.55-1.23-0.62c-0.06-0.01-0.13-0.03-0.19-0.04c0,0,0-0.01,0.01-0.01  c0.11-0.19,0.28-0.51,0.21-0.95c-0.06-0.4-0.26-0.59-0.7-1.03l-0.15-0.15c-0.42-0.42-0.82-0.82-0.92-0.96c0,0,0,0,0,0  c-0.01-0.05,0-0.12,0.04-0.22c0.03-0.01,0.05-0.02,0.08-0.04c0.49,0.16,0.98,0.36,1.46,0.55c0.23,0.09,0.46,0.18,0.69,0.27  c0,0,0,0,0,0c0.51,2.63,2.84,4.58,5.55,4.58c3.12,0,5.65-2.54,5.65-5.66c0-2.64-1.83-4.91-4.35-5.5c0,0,0,0,0-0.01  c0.17-0.39,0.4-0.64,0.71-0.78c0.73-0.32,1.54,0.18,2.79,1.04c1.17,0.79,2.62,1.78,4.48,2.02c0.34,0.04,0.69,0.06,1.03,0.05  c0.04,0,0.08,0,0.12,0c0.04,0,0.08,0,0.11-0.01c0.02,0,0.04,0,0.05,0c0.05,0,0.1-0.01,0.15-0.01c0.02,0,0.05,0,0.07-0.01  c0.04,0,0.08-0.01,0.12-0.01c0.05-0.01,0.09-0.01,0.14-0.02c0.21-0.03,0.41-0.06,0.62-0.11c0.07-0.01,0.14-0.03,0.2-0.05  c0.01,0,0.01,0,0.01,0c0.07-0.02,0.14-0.03,0.2-0.05c0.01,0,0.02,0,0.02-0.01c0.07-0.02,0.14-0.04,0.21-0.06  c0.01,0,0.01,0,0.02-0.01c0.05-0.02,0.11-0.03,0.16-0.05c0.03-0.01,0.06-0.02,0.09-0.03c0.15-0.05,0.3-0.11,0.45-0.17  c0.05-0.02,0.09-0.04,0.14-0.06c0.36,1.24,0.54,2.53,0.54,3.83C38.71,32.58,32.55,38.74,24.97,38.74z"/><text x="0" y="65" fill="#000000" font-size="5px" font-weight="bold" font-family="'Helvetica Neue', Helvetica, Arial-Unicode, Arial, Sans-serif">Created by Kenta Imagawa</text><text x="0" y="70" fill="#000000" font-size="5px" font-weight="bold" font-family="'Helvetica Neue', Helvetica, Arial-Unicode, Arial, Sans-serif">from the Noun Project</text></svg>